# xmcd
#
# Track frame offsets: 
#        150
#        13312
#        24547
#        38310
#        52287
#        65775
#        81442
#        89212
#        101225
#        114060
#        126187
#        139117
#        151147
#        163062
#        175785
#        187425
#        200647
#        212975
#        225960
#        237900
#
# Disc length: 3359 seconds
#
# Revision: 8
# Processed by: cddbd v1.5.1PL2 Copyright (c) Steve Scherf et al.
# Submitted via: ExactAudioCopy v0.95b3
#
DISCID=240d1d14
DTITLE=Various Artist - Living The Blues - 1953-1954 Blues Classics
DYEAR=1997
DGENRE=Blues
TTITLE0=Chuck Willis - I Feel  So Bad
TTITLE1=Guitar Slim - Well I Done Got Over
TTITLE2=B. B. King - You Upset Me Baby
TTITLE3=Little Walter - Blues with a Feeling
TTITLE4=Little Junior's Blue Flames - Feelin' Good
TTITLE5=Eddie Boyd - 24 Hours
TTITLE6=Big Mama Thornton - I Smell a Rat
TTITLE7=Professor Longhair - Tipitina
TTITLE8=Mercy Dee - One Room Country Shack
TTITLE9=Big Maybelle with Orchestra under the Direction of Leroy Kirkl
TTITLE9=and - Gabbin' Blues
TTITLE10=Rufus Thomas - Bear Cat
TTITLE11=Little Willie Littlefield - K. C. Loving
TTITLE12=Willie Mabon - I'm Mad
TTITLE13=Amos Milburn - Let Me Go Home Whiskey
TTITLE14=Clarence "Gatemouth" Brown - Okie Dokie Stomp
TTITLE15=Howlin' Wolf - Evil
TTITLE16=Smiley Lewis - Blue Monday
TTITLE17=Jimmy Witherspoon - When the Lights Go Out
TTITLE18=Young John Watson - Space Guitar
TTITLE19=Buddy Johnson - Hittin' on Me
EXTD=YEAR: 1997
EXTT0=
EXTT1=
EXTT2=
EXTT3=
EXTT4=
EXTT5=
EXTT6=
EXTT7=
EXTT8=
EXTT9=
EXTT10=
EXTT11=
EXTT12=
EXTT13=
EXTT14=
EXTT15=
EXTT16=
EXTT17=
EXTT18=
EXTT19=
PLAYORDER=
